<svg width="1366" height="1366" viewBox="0 0 1366 1366" fill="none" xmlns="http://www.w3.org/2000/svg">
<g clip-path="url(#clip0_55_215)">
<path d="M0.666626 0H1366V1365.33H0.666626V0ZM277.76 529.24C240.547 566.933 203.053 604.347 165.8 641.987C163.92 644.08 160.907 645.987 161.36 649.24C161.44 663.04 161.28 676.84 161.52 690.64C161.32 692.64 163.307 693.733 164.413 695.093C183.693 714.4 203.08 733.6 222.373 752.907C237.333 768.293 253.04 782.987 267.68 798.667C283.867 798.52 300.067 798.987 316.24 798.413C310.347 792.067 304 786.16 297.987 779.933C265.2 747.373 233.067 714.12 199.88 681.987C199.987 673.96 199.653 665.92 199.973 657.907C225.827 631.88 251.64 605.773 277.56 579.813C297.68 559.413 318.293 539.493 338.12 518.813C321.64 518.56 305.147 518.613 288.68 518.773C284.507 521.627 281.373 525.747 277.76 529.24ZM406.747 520.613C351.12 576.533 295.52 632.493 239.88 688.4C238.56 689.827 236.933 691.133 236.24 693.027C236.067 695.067 236.333 698.48 239.32 697.747C253.133 697.853 266.947 697.747 280.773 697.84C284.173 694.347 287.6 690.893 291.213 687.613C328.733 724.48 365.707 761.947 403.613 798.373C420.107 799.013 436.68 798.547 453.2 798.613C407.867 752.747 361.707 707.693 316.427 661.787C364.067 614.293 411.267 566.347 458.907 518.84C444.387 518.453 429.867 518.76 415.347 518.667C412.44 518.787 408.853 518.067 406.747 520.613ZM470.413 605.453C470 605.867 469.173 606.693 468.76 607.107C468.547 649.64 468.733 692.2 468.653 734.733C468.427 736.627 469.187 738.36 470.013 740.027C477.107 739.987 484.2 739.973 491.293 740.04C491.613 739.36 492.28 738.013 492.6 737.347C493.04 716.08 492.053 694.747 493.12 673.507C493.853 675.267 494.6 677.04 495.533 678.72C508.52 699.107 521 719.8 534.267 740C543.227 739.92 552.187 740.173 561.133 739.827C561.093 737.613 560.16 735.64 558.88 733.88C544.76 713 530.68 692.067 516.4 671.28C517 669.88 517.6 668.48 518.453 667.213C527.32 653.893 536.32 640.653 545.347 627.44C549.773 620.987 554.56 614.76 558.427 607.947C558.36 607.333 558.227 606.093 558.16 605.467C550.107 605.227 542.053 605.28 534.013 605.427C530.413 606.987 528.827 610.933 526.613 613.907C515.52 631.72 503.72 649.08 492.92 667.067C492.24 647.107 493.04 627.093 492.493 607.133C492.107 606.707 491.307 605.853 490.907 605.427C484.08 605.28 477.227 605.24 470.413 605.453ZM576.693 609.28C576.64 652.4 576.667 695.533 576.68 738.653C584.093 741.28 592.133 739.453 599.84 740.027C599.44 723.12 599.84 706.213 599.653 689.307C605.6 689.373 611.547 689.253 617.493 689.413C625.493 706.533 635.187 722.84 643.707 739.707C651.627 740.2 659.573 740.053 667.493 739.853C670.16 740.44 670.827 736.973 669.32 735.347C663.107 723.933 656.213 712.92 649.787 701.627C647 696.933 644.48 692.067 641.227 687.667C649.987 682.92 658.013 675.84 661.093 666.053C663.573 660.307 663.16 654 664.36 647.987C663.773 637.773 661.92 627.013 655.307 618.827C648.333 609.44 636.12 604.76 624.64 605.333C609.907 605.373 595.173 605.267 580.44 605.373C578.4 605.267 576.48 607.24 576.693 609.28ZM721.96 605.427C719.787 605.333 718.733 607.387 718.32 609.2C705.64 650.2 692.773 691.133 679.893 732.067C679.32 734.48 678.107 737.347 679.48 739.693C686.96 740.307 694.52 739.973 702.027 739.84C704.107 730.12 706.987 720.56 710.32 711.2C725.853 711.533 741.48 710.667 756.947 711.667C760.093 720.947 762.08 730.68 765.893 739.72C772.627 740.28 779.427 739.947 786.187 739.947C788.147 740.133 789.28 738.427 789.96 736.88C788.307 733.867 787.48 730.52 786.507 727.28C778.32 701.067 769.653 675 761.493 648.773C756.707 634.307 752.227 619.72 747.307 605.307C738.853 605.44 730.4 605.187 721.96 605.427ZM806.44 605.813C805.44 622.053 806.267 638.4 806 654.68C806.267 682.987 805.453 711.32 806.427 739.6C813.747 740.373 821.147 739.88 828.507 739.96C828.92 722.627 828.467 705.267 828.747 687.933C844.28 688.093 859.813 687.933 875.36 688.013C877.307 684.293 876.56 680.053 876.68 676.04C876.627 672.68 877.067 669.187 875.587 666.053C859.973 666.16 844.347 665.907 828.733 666.213C828.68 653.16 828.507 640.093 828.84 627.053C846.173 627.387 863.507 627.04 880.853 627.253C880.867 620.747 881 614.24 880.813 607.733C880.533 605.8 878.6 605.187 876.907 605.347C857.733 605.307 838.56 605.347 819.387 605.333C815.067 605.373 810.72 605.107 806.44 605.813ZM896.707 605.293C895.147 607.2 893.747 609.32 894.027 611.92C894.293 617.053 892.6 623.04 896.373 627.267C915.04 627.093 933.707 627.267 952.373 627.16L952.213 627.973C933.013 657.453 913.507 686.827 894.093 716.2C892.533 718.48 891.547 721.147 891.747 723.947C891.907 729.12 891 734.613 893.453 739.413C898.467 740.307 903.573 739.92 908.64 740C932.72 740.053 956.787 739.893 980.867 740.08C980.427 732.88 980.92 725.68 980.427 718.493C960.24 718.267 940.04 718.413 919.853 718.373C939.747 688.227 959.547 658.013 979.547 627.947C983.373 622.413 981.64 615.453 981.973 609.187C982.533 606.187 979.053 605.187 976.747 605.333C950.067 605.307 923.387 605.373 896.707 605.293ZM1000.69 609.173C1000.63 651.493 1000.67 693.813 1000.68 736.133C1000.32 738.373 1002.32 740.213 1004.52 739.973C1029.01 740.04 1053.51 739.987 1078 740C1077.73 733.093 1078.61 726.107 1077.37 719.28C1073.27 717.813 1068.87 718.453 1064.61 718.387C1050.97 718.32 1037.33 718.467 1023.69 718.307C1023.97 706.093 1023.79 693.88 1023.76 681.68C1039.6 681.267 1055.48 682.093 1071.31 681.2C1071.36 674.507 1071.31 667.827 1071.33 661.133C1055.52 660.253 1039.61 660.853 1023.76 660.84C1023.84 649.627 1023.84 638.4 1023.77 627.187C1041.12 627.08 1058.47 627.373 1075.81 627.12C1076.52 620.88 1076.24 614.56 1076.09 608.293C1076.09 605.907 1073.25 605.333 1071.37 605.333C1049.07 605.36 1026.75 605.293 1004.43 605.36C1002.08 605.027 1000.25 606.8 1000.69 609.173ZM1099.6 608.067C1099.28 612.947 1099.4 617.867 1099.72 622.76C1100.77 631.12 1100.13 639.56 1100.29 647.96C1100.28 677.76 1100.35 707.56 1100.28 737.347C1100.77 739.24 1102.81 739.88 1104.56 739.907C1110.01 740.12 1115.48 739.933 1120.95 740C1120.84 708.627 1121.28 677.24 1120.76 645.867C1130.33 661.947 1139.12 678.533 1148.48 694.773C1157.25 709.747 1165.13 725.24 1174.25 740C1181.73 740.04 1189.23 739.907 1196.72 740.093C1196.52 695.773 1196.84 651.44 1196.56 607.133C1196.15 606.707 1195.33 605.853 1194.92 605.427C1187.96 605.2 1180.99 605.373 1174.03 605.36C1174.11 620.027 1174.08 634.693 1174.08 649.36C1174.32 664.64 1173.44 679.96 1175.04 695.187C1172.75 693.187 1171.83 690.213 1170.32 687.68C1163.97 676.56 1157.97 665.253 1151.64 654.12C1142.35 637.947 1133.95 621.227 1124.05 605.4C1117.57 605.267 1111.11 605.347 1104.64 605.333C1102.64 605.227 1099.84 605.6 1099.6 608.067Z" fill="#090909"/>
<path d="M599.6 627.013C609.587 627.547 619.733 625.88 629.573 628.12C637.32 631.4 640.96 640 640.707 648.013C640.96 655.933 637.227 665.213 628.72 667.107C619.027 667.773 609.267 667.387 599.56 667.307C599.787 653.88 599.707 640.453 599.6 627.013Z" fill="#090909"/>
<path d="M733.28 630.813C738.96 650.293 744.88 669.693 750.44 689.213C738.973 689.267 727.48 689.693 716.04 688.933C719.32 683.68 719.307 677.16 721.707 671.507C725.32 657.88 729.547 644.413 733.28 630.813Z" fill="#090909"/>
<path d="M277.76 529.24C281.373 525.747 284.507 521.627 288.68 518.773C305.147 518.613 321.64 518.56 338.12 518.813C318.293 539.493 297.68 559.413 277.56 579.813C251.64 605.773 225.827 631.88 199.973 657.907C199.653 665.92 199.987 673.96 199.88 681.987C233.067 714.12 265.2 747.373 297.987 779.933C304 786.16 310.347 792.067 316.24 798.413C300.067 798.987 283.867 798.52 267.68 798.667C253.04 782.987 237.333 768.293 222.373 752.907C203.08 733.6 183.693 714.4 164.413 695.093C163.307 693.733 161.32 692.64 161.52 690.64C161.28 676.84 161.44 663.04 161.36 649.24C160.907 645.987 163.92 644.08 165.8 641.987C203.053 604.347 240.547 566.933 277.76 529.24Z" fill="#F1F1F1"/>
<path d="M406.747 520.613C408.853 518.067 412.44 518.787 415.347 518.667C429.867 518.76 444.387 518.453 458.907 518.84C411.267 566.347 364.067 614.293 316.427 661.787C361.707 707.693 407.867 752.747 453.2 798.613C436.68 798.547 420.107 799.013 403.613 798.373C365.707 761.947 328.733 724.48 291.213 687.613C287.6 690.893 284.173 694.347 280.773 697.84C266.947 697.747 253.133 697.853 239.32 697.747C236.333 698.48 236.067 695.067 236.24 693.027C236.933 691.133 238.56 689.827 239.88 688.4C295.52 632.493 351.12 576.533 406.747 520.613Z" fill="#F1F1F1"/>
<path d="M470.413 605.453C477.227 605.24 484.08 605.28 490.907 605.427C491.307 605.853 492.107 606.707 492.493 607.133C493.04 627.093 492.24 647.107 492.92 667.067C503.72 649.08 515.52 631.72 526.613 613.907C528.827 610.933 530.413 606.987 534.013 605.427C542.053 605.28 550.107 605.227 558.16 605.467C558.227 606.093 558.36 607.333 558.427 607.947C554.56 614.76 549.773 620.987 545.347 627.44C536.32 640.653 527.32 653.893 518.453 667.213C517.6 668.48 517 669.88 516.4 671.28C530.68 692.067 544.76 713 558.88 733.88C560.16 735.64 561.093 737.613 561.133 739.827C552.187 740.173 543.227 739.92 534.267 740C521 719.8 508.52 699.107 495.533 678.72C494.6 677.04 493.853 675.267 493.12 673.507C492.053 694.747 493.04 716.08 492.6 737.347C492.28 738.013 491.613 739.36 491.293 740.04C484.2 739.973 477.107 739.987 470.013 740.027C469.187 738.36 468.427 736.627 468.653 734.733C468.733 692.2 468.547 649.64 468.76 607.107C469.173 606.693 470 605.867 470.413 605.453Z" fill="#F1F1F1"/>
<path d="M576.693 609.28C576.48 607.24 578.4 605.267 580.44 605.373C595.173 605.267 609.907 605.373 624.64 605.333C636.12 604.76 648.333 609.44 655.307 618.827C661.92 627.013 663.773 637.773 664.36 647.987C663.16 654 663.573 660.307 661.093 666.053C658.013 675.84 649.987 682.92 641.227 687.667C644.48 692.067 647 696.933 649.787 701.627C656.213 712.92 663.107 723.933 669.32 735.347C670.827 736.973 670.16 740.44 667.493 739.853C659.573 740.053 651.627 740.2 643.707 739.707C635.187 722.84 625.493 706.533 617.493 689.413C611.547 689.253 605.6 689.373 599.653 689.307C599.84 706.213 599.44 723.12 599.84 740.027C592.133 739.453 584.093 741.28 576.68 738.653C576.667 695.533 576.64 652.4 576.693 609.28ZM599.6 627.013C599.707 640.453 599.787 653.88 599.56 667.307C609.267 667.387 619.027 667.773 628.72 667.107C637.227 665.213 640.96 655.933 640.707 648.013C640.96 640 637.32 631.4 629.573 628.12C619.733 625.88 609.587 627.547 599.6 627.013Z" fill="#F1F1F1"/>
<path d="M721.96 605.427C730.4 605.187 738.853 605.44 747.307 605.307C752.227 619.72 756.707 634.307 761.493 648.773C769.653 675 778.32 701.067 786.507 727.28C787.48 730.52 788.307 733.867 789.96 736.88C789.28 738.427 788.147 740.133 786.187 739.947C779.427 739.947 772.627 740.28 765.893 739.72C762.08 730.68 760.093 720.947 756.947 711.667C741.48 710.667 725.853 711.533 710.32 711.2C706.987 720.56 704.107 730.12 702.027 739.84C694.52 739.973 686.96 740.307 679.48 739.693C678.107 737.347 679.32 734.48 679.893 732.067C692.773 691.133 705.64 650.2 718.32 609.2C718.733 607.387 719.787 605.333 721.96 605.427ZM733.28 630.813C729.547 644.413 725.32 657.88 721.707 671.507C719.307 677.16 719.32 683.68 716.04 688.933C727.48 689.693 738.973 689.267 750.44 689.213C744.88 669.693 738.96 650.293 733.28 630.813Z" fill="#F1F1F1"/>
<path d="M806.44 605.813C810.72 605.107 815.067 605.373 819.387 605.333C838.56 605.347 857.733 605.307 876.907 605.347C878.6 605.187 880.533 605.8 880.813 607.733C881 614.24 880.867 620.747 880.853 627.253C863.507 627.04 846.173 627.387 828.84 627.053C828.507 640.093 828.68 653.16 828.733 666.213C844.347 665.907 859.973 666.16 875.587 666.053C877.067 669.187 876.627 672.68 876.68 676.04C876.56 680.053 877.307 684.293 875.36 688.013C859.813 687.933 844.28 688.093 828.747 687.933C828.467 705.267 828.92 722.626 828.507 739.96C821.147 739.88 813.747 740.373 806.427 739.6C805.453 711.32 806.267 682.987 806 654.68C806.267 638.4 805.44 622.053 806.44 605.813Z" fill="#F1F1F1"/>
<path d="M896.707 605.293C923.387 605.373 950.067 605.307 976.747 605.333C979.053 605.187 982.533 606.187 981.973 609.187C981.64 615.453 983.373 622.413 979.547 627.947C959.547 658.013 939.747 688.227 919.853 718.373C940.04 718.413 960.24 718.267 980.427 718.493C980.92 725.68 980.427 732.88 980.867 740.08C956.787 739.893 932.72 740.053 908.64 740C903.573 739.92 898.467 740.307 893.453 739.413C891 734.613 891.907 729.12 891.747 723.947C891.547 721.147 892.533 718.48 894.093 716.2C913.507 686.827 933.013 657.453 952.213 627.973L952.373 627.16C933.707 627.267 915.04 627.093 896.373 627.267C892.6 623.04 894.293 617.053 894.027 611.92C893.747 609.32 895.147 607.2 896.707 605.293Z" fill="#F1F1F1"/>
<path d="M1000.69 609.173C1000.25 606.8 1002.08 605.027 1004.43 605.36C1026.75 605.293 1049.07 605.36 1071.37 605.333C1073.25 605.333 1076.09 605.907 1076.09 608.293C1076.24 614.56 1076.52 620.88 1075.81 627.12C1058.47 627.373 1041.12 627.08 1023.77 627.187C1023.84 638.4 1023.84 649.627 1023.76 660.84C1039.61 660.853 1055.52 660.253 1071.33 661.133C1071.31 667.827 1071.36 674.507 1071.31 681.2C1055.48 682.093 1039.6 681.267 1023.76 681.68C1023.79 693.88 1023.97 706.093 1023.69 718.307C1037.33 718.467 1050.97 718.32 1064.61 718.387C1068.87 718.453 1073.27 717.813 1077.37 719.28C1078.61 726.107 1077.73 733.093 1078 740C1053.51 739.987 1029.01 740.04 1004.52 739.973C1002.32 740.213 1000.32 738.373 1000.68 736.133C1000.67 693.813 1000.63 651.493 1000.69 609.173Z" fill="#F1F1F1"/>
<path d="M1099.6 608.067C1099.84 605.6 1102.64 605.227 1104.64 605.333C1111.11 605.347 1117.57 605.267 1124.05 605.4C1133.95 621.227 1142.35 637.947 1151.64 654.12C1157.97 665.253 1163.97 676.56 1170.32 687.68C1171.83 690.213 1172.75 693.187 1175.04 695.187C1173.44 679.96 1174.32 664.64 1174.08 649.36C1174.08 634.693 1174.11 620.027 1174.03 605.36C1180.99 605.373 1187.96 605.2 1194.92 605.427C1195.33 605.853 1196.15 606.707 1196.56 607.133C1196.84 651.44 1196.52 695.773 1196.72 740.093C1189.23 739.907 1181.73 740.04 1174.25 740C1165.13 725.24 1157.25 709.747 1148.48 694.773C1139.12 678.533 1130.33 661.947 1120.76 645.867C1121.28 677.24 1120.84 708.627 1120.95 740C1115.48 739.933 1110.01 740.12 1104.56 739.907C1102.81 739.88 1100.77 739.24 1100.28 737.347C1100.35 707.56 1100.28 677.76 1100.29 647.96C1100.13 639.56 1100.77 631.12 1099.72 622.76C1099.4 617.867 1099.28 612.947 1099.6 608.067Z" fill="#F1F1F1"/>
</g>
<defs>
<clipPath id="clip0_55_215">
<rect width="1365.33" height="1365.33" fill="white" transform="translate(0.666626)"/>
</clipPath>
</defs>
</svg>
